<svg version="1.1" id="Layer_1" xmlns="http://www.w3.org/2000/svg" xmlns:xlink="http://www.w3.org/1999/xlink" x="0px" y="0px"
	 width="100%" viewBox="0 0 433 230" enable-background="new 0 0 433 230" xml:space="preserve">
<path fill="#000000" opacity="1.000000" stroke="none" 
	d="
M317.000000,231.000000 
	C211.333374,231.000000 106.166740,231.000000 1.000085,231.000000 
	C1.000057,154.333405 1.000057,77.666794 1.000028,1.000146 
	C145.333221,1.000098 289.666443,1.000098 433.999756,1.000049 
	C433.999817,77.666527 433.999817,154.333054 433.999908,230.999786 
	C395.166656,231.000000 356.333344,231.000000 317.000000,231.000000 
M111.918007,215.947906 
	C193.930481,215.942688 275.942963,215.937469 358.810944,215.993607 
	C367.979919,215.854950 375.336365,211.272186 382.419739,206.181808 
	C386.862885,202.988770 390.765625,199.307404 389.930695,192.077194 
	C388.011963,181.809067 392.313782,174.299179 400.250214,168.238739 
	C402.464600,166.547806 404.281921,164.316238 406.175690,162.236465 
	C406.921387,161.417480 407.672028,160.404190 407.916443,159.361267 
	C409.084473,154.377380 401.108337,138.477982 396.259064,137.095322 
	C391.298798,135.681046 389.667328,132.666763 389.633881,127.294785 
	C386.074371,112.441696 379.148895,107.042847 363.567200,107.017532 
	C354.074463,107.002113 344.575592,106.831268 335.091980,107.129128 
	C331.465332,107.243034 329.538910,105.864876 329.488525,102.596436 
	C329.392517,96.367867 328.555115,89.785202 330.219177,83.978172 
	C332.914062,74.574074 337.272491,65.631798 341.128204,56.579601 
	C344.667480,48.270432 347.608917,39.949131 347.117676,30.650881 
	C346.407379,17.205526 335.562683,6.917591 322.711426,7.957765 
	C313.775116,8.681064 303.713776,17.955624 301.395294,28.481848 
	C299.766327,35.877537 298.689270,43.452915 298.093872,51.005455 
	C297.007690,64.782677 295.713409,78.348740 285.728516,89.205963 
	C279.649536,95.815994 273.650726,102.499733 267.171448,109.640190 
	C265.460754,107.310745 264.203644,105.630035 262.979187,103.925903 
	C259.136871,98.578453 255.895554,92.652931 251.367584,87.970383 
	C234.104111,70.117561 213.661148,58.323639 188.266769,56.472317 
	C172.905151,55.352409 157.982346,56.193668 143.248260,61.624722 
	C123.179733,69.022079 108.252579,82.498604 96.200554,99.462036 
	C92.507675,104.659821 89.097832,108.231102 82.262833,107.107323 
	C79.180824,106.600594 75.811783,106.435913 72.818886,107.148666 
	C69.130539,108.027031 65.401398,109.519516 62.216568,111.566162 
	C55.199852,116.075294 53.234116,123.048622 54.094036,131.025497 
	C54.503944,134.827927 53.307014,137.233154 48.298244,137.305237 
	C47.343765,137.535248 46.399605,137.829086 45.433197,137.985321 
	C36.236633,139.472153 24.236340,150.198135 23.396675,159.113037 
	C22.925987,164.110458 21.020235,167.064621 17.495344,170.228683 
	C9.820667,177.117722 10.864277,188.578400 19.494774,194.225693 
	C27.538687,199.489166 36.230263,199.279999 45.755108,196.185638 
	C47.258411,197.279572 49.080952,198.114304 50.213558,199.509216 
	C57.963821,209.054321 67.893616,214.502106 81.003204,215.980972 
	C90.996887,215.934128 100.990570,215.887268 111.918007,215.947906 
z"/>
<path fill="#4D291C" opacity="1.000000" stroke="none" 
	d="
M389.840698,128.004776 
	C389.667328,132.666763 391.298798,135.681046 396.259064,137.095322 
	C401.108337,138.477982 409.084473,154.377380 407.916443,159.361267 
	C407.672028,160.404190 406.921387,161.417480 406.175690,162.236465 
	C404.281921,164.316238 402.464600,166.547806 400.250214,168.238739 
	C392.313782,174.299179 388.011963,181.809067 389.512390,192.529083 
	C385.925751,192.899612 386.168640,190.936966 386.208740,188.544525 
	C386.233917,187.040222 384.951569,185.514038 384.156769,183.595123 
	C384.619751,178.752731 382.176910,178.947296 379.163818,179.740005 
	C379.005798,181.646515 378.870850,183.274979 378.287476,184.869781 
	C372.920624,185.246964 367.327271,184.314453 363.235474,186.370453 
	C356.386108,189.812057 349.608917,191.154633 342.134033,191.144714 
	C278.648254,191.060349 215.162277,191.073120 151.676437,191.130463 
	C143.199814,191.138123 134.724396,191.596436 126.246925,191.776031 
	C116.864632,191.974777 107.356598,191.224655 98.139481,192.541107 
	C91.620979,193.472137 86.104996,192.412537 80.232727,190.331284 
	C78.311829,189.650452 75.732246,190.458527 73.545509,190.974167 
	C68.975143,192.051865 64.465729,193.388046 59.668571,194.432709 
	C54.090130,191.042023 49.583336,193.775909 45.034988,196.204712 
	C36.230263,199.279999 27.538687,199.489166 19.494774,194.225693 
	C10.864277,188.578400 9.820667,177.117722 17.495344,170.228683 
	C21.020235,167.064621 22.925987,164.110458 23.396675,159.113037 
	C24.236340,150.198135 36.236633,139.472153 45.433197,137.985321 
	C46.399605,137.829086 47.343765,137.535248 48.943161,137.364563 
	C52.445629,139.252182 56.331936,135.069901 59.125931,139.177399 
	C61.296043,141.083160 63.169025,142.817032 65.045631,144.884003 
	C66.110329,145.858688 67.476082,147.264954 68.171165,146.987991 
	C69.784119,146.345337 71.255844,145.056183 72.460609,143.733719 
	C76.746002,139.029755 79.909798,138.840225 84.636871,143.116074 
	C86.093307,144.433487 87.907227,146.787354 89.231750,146.580536 
	C96.434158,145.456039 101.135933,150.971634 106.958694,153.138641 
	C113.611366,155.614532 118.408447,150.433746 118.045799,144.938217 
	C117.870125,142.276016 117.008789,140.924316 114.215355,140.997818 
	C111.445534,141.070694 108.671349,140.977722 106.167801,140.711746 
	C107.631470,140.275177 108.826401,140.084351 110.453323,139.939651 
	C113.457161,139.659882 116.902840,140.275452 118.447014,138.842270 
	C124.574509,133.155243 130.453796,132.232285 136.985138,138.363602 
	C143.334610,130.012009 149.454971,134.658920 156.244843,139.881363 
	C155.691605,136.912247 155.427750,135.656723 155.226685,134.391190 
	C153.884247,125.941338 159.423157,118.793892 167.925659,118.962891 
	C171.525040,119.034424 175.087112,120.982567 178.814636,122.329704 
	C179.298187,122.760841 179.633255,122.940048 179.926117,123.085068 
	C179.883926,123.050873 179.817139,123.136543 179.932755,123.483139 
	C181.252655,128.292023 182.456955,132.754303 183.922440,138.184357 
	C184.420303,138.184357 186.194260,138.264938 187.958771,138.169907 
	C194.387802,137.823654 200.826019,136.976746 207.237396,137.155807 
	C214.135773,137.348465 220.365494,136.591446 225.482391,130.905243 
	C229.335236,130.920364 232.800232,131.001846 236.397278,131.376190 
	C241.761780,137.293518 243.700516,137.442719 246.800919,132.065796 
	C246.906189,131.154221 246.955811,130.632111 247.327057,130.060303 
	C248.075195,129.939224 248.501709,129.867828 249.277252,129.865845 
	C251.037231,129.302826 252.448181,128.670395 254.242279,128.021912 
	C256.745575,127.005180 258.865723,126.004517 261.066406,125.322380 
	C263.079315,129.402267 263.247131,129.500092 265.387634,128.305511 
	C266.353180,131.992447 267.266785,135.344757 267.851013,138.753510 
	C268.859985,144.640289 268.704773,144.217926 274.807037,143.028351 
	C282.050293,141.616364 289.558441,140.593201 296.097229,145.622101 
	C298.403320,147.395676 300.237427,146.893784 301.477478,144.689651 
	C304.623413,139.097931 309.197845,138.003586 315.008942,139.689270 
	C316.384155,140.088181 317.965027,139.778000 319.749023,139.869263 
	C320.981506,139.612839 321.916260,139.281174 323.176392,139.088776 
	C324.842072,139.027267 326.551086,139.278854 327.454651,138.542297 
	C330.360840,136.173309 332.658417,132.933899 335.791016,131.005310 
	C338.335510,129.438812 342.105957,128.078888 344.661285,128.850586 
	C346.914001,129.530899 349.344543,133.124222 349.727112,135.721329 
	C350.396606,140.266266 352.283569,140.089233 355.785339,139.335251 
	C359.079987,138.625870 362.731323,138.028336 365.927429,138.733490 
	C372.238098,140.125793 375.466858,138.470428 377.404694,131.745361 
	C378.144348,131.750122 378.633942,131.686203 379.522491,131.545532 
	C381.798248,130.876328 384.534912,131.336319 384.576233,127.999130 
	C386.602570,128.001343 388.221649,128.003067 389.840698,128.004776 
M207.218231,176.729324 
	C212.235916,168.049271 217.253601,159.369217 222.271286,150.689148 
	C222.809555,150.961884 223.347824,151.234634 223.886093,151.507370 
	C223.646179,152.740646 223.416077,153.975937 223.164688,155.206863 
	C221.866364,161.564178 220.190247,167.879288 219.481415,174.301315 
	C219.260925,176.299072 221.655045,178.585403 222.852188,180.739609 
	C224.239166,179.638916 225.974579,178.782623 226.949387,177.392838 
	C230.196701,172.763153 233.021851,167.836105 236.293900,163.225342 
	C239.310516,158.974548 242.694687,154.984619 245.916962,150.879776 
	C246.333313,151.141846 246.749664,151.403931 247.166000,151.666016 
	C246.513779,153.273376 245.825165,154.867096 245.215881,156.490570 
	C242.997849,162.400574 240.475845,168.228119 238.781784,174.286224 
	C238.178314,176.444214 238.829849,180.261734 240.328171,181.329376 
	C241.814453,182.388428 245.488739,181.617966 247.487457,180.437561 
	C250.821274,178.468704 253.584366,175.533401 256.648865,172.953522 
	C260.053619,180.529770 264.436462,181.265381 270.266205,175.443756 
	C272.060822,173.651627 273.707397,171.711258 274.901154,170.407349 
	C276.068146,173.102859 276.795410,177.473099 278.368683,177.802490 
	C280.892792,178.330963 284.153503,176.506012 286.768890,175.068115 
	C288.891815,173.900986 290.524139,171.841553 292.750610,169.839203 
	C295.834015,175.426086 300.364166,179.309845 306.562836,176.547455 
	C311.697083,174.259399 316.037598,170.190216 320.002197,167.418777 
	C321.174591,169.987183 322.267151,175.186951 323.889709,175.357956 
	C327.396484,175.727539 331.329437,173.851990 334.789825,172.250443 
	C337.219574,171.125916 339.156952,168.937515 341.422211,167.138412 
	C344.029846,174.408768 348.248047,176.903427 355.106873,174.483429 
	C359.077362,173.082520 363.083557,170.807373 366.102051,167.912567 
	C370.628296,163.571823 374.131897,158.184570 378.412506,153.558945 
	C380.341553,151.474380 383.095856,150.153503 385.475739,148.486130 
	C383.335358,154.324905 380.101562,158.839554 378.000244,163.830933 
	C377.026062,166.144989 377.251617,170.460114 378.782349,171.893631 
	C380.190521,173.212387 384.887756,172.934525 386.720764,171.522598 
	C392.077301,167.396561 396.777679,162.403732 401.591064,157.605957 
	C402.209778,156.989212 401.976746,155.517960 402.309235,153.304626 
	C396.118500,157.301529 393.811768,164.306213 385.923248,165.369598 
	C386.810547,162.940308 387.188141,161.186905 388.041931,159.708466 
	C390.287842,155.819672 392.862152,152.117844 395.041534,148.194809 
	C395.744812,146.928879 396.244263,144.890350 395.683746,143.795761 
	C395.255035,142.958557 393.019501,142.839859 391.572083,142.780518 
	C389.509735,142.695984 387.433167,142.958450 385.989746,143.038071 
	C385.350647,140.586731 384.889343,138.817291 384.428009,137.047836 
	C382.264984,137.972916 379.542938,138.389084 378.102142,139.971680 
	C376.763794,141.441727 376.674744,144.134491 376.270020,146.332062 
	C376.076782,147.381378 376.909698,148.811386 376.456299,149.591492 
	C371.793701,157.613876 366.443115,165.066971 357.098389,168.121689 
	C355.443787,168.662552 352.966736,168.457855 351.608154,167.523422 
	C350.672791,166.880081 351.012238,164.383270 350.736664,162.386917 
	C358.952850,162.586349 364.927460,159.656189 367.879761,152.654449 
	C368.787659,150.501175 368.428772,146.696167 367.021393,144.994400 
	C365.575989,143.246750 362.106445,142.425095 359.583679,142.539658 
	C357.333282,142.641861 354.643219,144.093735 353.070343,145.800659 
	C349.730682,149.424866 346.671967,153.405548 344.085999,157.602371 
	C340.724121,163.058502 336.303284,166.805237 329.388580,169.398895 
	C328.785034,162.765854 332.922516,158.438889 333.977203,153.400589 
	C335.484833,146.198364 344.377991,150.488983 346.585114,144.277618 
	C344.351166,143.921524 342.537323,143.632416 340.164032,143.254120 
	C342.306793,140.094559 344.123352,137.416000 345.867554,134.844070 
	C343.010162,130.924942 340.513733,131.205597 338.067871,134.570816 
	C336.403809,136.860443 334.897064,139.282059 333.059387,141.420731 
	C332.081238,142.559052 330.613586,143.343231 329.249451,144.065369 
	C327.772949,144.846954 326.159637,145.370102 324.606018,146.005981 
	C325.400085,147.562363 326.194183,149.118744 327.454346,151.588638 
	C323.367889,156.389633 318.765625,161.796600 314.163391,167.203568 
	C313.533844,166.865524 312.904327,166.527496 312.274811,166.189468 
	C312.997681,160.637451 313.326019,154.993286 314.593140,149.568405 
	C315.338562,146.377197 314.439667,144.877197 311.933197,143.572128 
	C309.185120,142.141235 307.825195,143.633621 306.245514,145.737259 
	C300.794373,152.996506 295.192902,160.146606 289.486877,167.207504 
	C288.354919,168.608246 286.506317,169.429825 284.988190,170.518478 
	C284.490112,167.946915 284.757874,165.992340 285.576355,164.304871 
	C287.534546,160.267654 289.893707,156.421738 291.776306,152.352966 
	C292.323517,151.170334 292.350372,148.693756 291.657593,148.224319 
	C290.459625,147.412537 288.506195,147.547668 286.883240,147.614670 
	C286.243530,147.641068 285.640228,148.549789 284.921936,149.137222 
	C280.974457,144.319580 276.357208,145.652176 272.807251,148.491684 
	C268.606750,151.851517 265.018921,156.131332 261.738068,160.447556 
	C257.738129,165.709808 253.773849,170.847610 247.600159,174.038223 
	C247.612259,171.907059 247.946487,169.990723 248.775940,168.320282 
	C252.990387,159.832733 257.484802,151.480133 261.512787,142.907181 
	C262.399200,141.020554 262.644562,137.953918 261.699493,136.259140 
	C259.360565,132.064804 255.628326,133.074295 252.960266,135.901794 
	C246.917145,142.306000 241.220474,149.039520 235.451767,155.698807 
	C233.786499,157.621140 232.355530,159.746429 230.817139,161.778671 
	C230.433487,161.572342 230.049835,161.366013 229.666183,161.159668 
	C231.292252,154.917740 233.075745,148.709824 234.436707,142.410629 
	C234.788925,140.780289 234.339859,137.807617 233.338089,137.311768 
	C231.574539,136.438843 229.069107,136.765579 226.940521,137.063263 
	C225.965942,137.199570 225.045822,138.366898 224.275314,139.223450 
	C214.363495,150.242416 206.950165,162.813766 201.507614,176.543549 
	C200.406189,179.322128 200.035278,182.420441 203.639679,184.785919 
	C204.793762,182.203293 205.862808,179.810974 207.218231,176.729324 
M106.058250,160.143295 
	C106.132645,156.808441 104.772377,155.693909 101.394623,156.623825 
	C99.457253,157.157196 97.298927,156.887970 95.915146,156.949875 
	C95.070442,154.448608 94.484138,152.712524 93.897835,150.976440 
	C91.765472,152.003067 89.140457,152.577026 87.652847,154.196060 
	C86.408569,155.550247 86.453529,158.117569 86.002975,160.164291 
	C85.570915,162.127014 85.878571,164.663467 84.741989,165.985947 
	C80.756126,170.623856 76.398018,174.964706 71.932213,179.152832 
	C70.659637,180.346283 68.541756,180.638397 66.163734,181.607941 
	C65.679100,174.670151 69.217644,170.042282 71.438210,164.988251 
	C72.611275,162.318344 74.270752,160.940933 77.425323,160.704651 
	C79.540115,160.546234 81.543571,158.901367 83.596848,157.921616 
	C83.375076,157.404938 83.153305,156.888260 82.931541,156.371582 
	C81.177567,156.182495 79.423599,155.993393 76.964828,155.728317 
	C78.518272,153.463043 80.065483,151.707062 80.988068,149.668396 
	C81.516640,148.500381 81.452286,145.873795 80.918297,145.648315 
	C79.559700,145.074661 77.113777,144.811691 76.305626,145.622696 
	C73.864342,148.072586 72.125946,151.205750 69.844841,153.839874 
	C68.756447,155.096710 67.124916,155.946854 65.620033,156.760406 
	C64.275368,157.487320 62.766628,157.910721 61.330288,158.468033 
	C62.090534,160.077805 62.850784,161.687561 63.151993,162.325348 
	C61.345158,168.284607 59.269276,173.596985 58.260986,179.104797 
	C57.757881,181.853058 58.267361,186.238770 60.039787,187.540405 
	C61.789101,188.825089 65.887848,187.638885 68.623535,186.632919 
	C71.020370,185.751556 73.248589,183.890656 75.039017,181.981918 
	C79.811493,176.894104 84.466286,171.674911 88.840599,166.244339 
	C90.738693,163.887909 92.353798,163.211517 95.209648,164.896698 
	C93.682228,167.187256 92.227501,169.187119 90.970680,171.304459 
	C89.700684,173.443924 87.987770,175.602661 87.633987,177.930069 
	C87.221992,180.640320 87.092789,184.686447 88.660965,186.032608 
	C90.158127,187.317825 94.314911,186.573669 96.723495,185.464325 
	C99.907646,183.997772 102.527954,181.307068 105.546783,179.024445 
	C106.968796,187.508865 110.239174,188.763687 116.996811,183.748459 
	C118.847626,182.374863 120.539871,180.787582 122.588715,179.058899 
	C122.925194,180.102631 123.000641,180.950562 123.429138,181.543198 
	C124.446259,182.949936 125.413055,184.780136 126.835983,185.348862 
	C127.587639,185.649292 129.421585,183.822357 130.466568,182.680954 
	C132.331329,180.644135 133.968430,178.398880 135.845917,176.059906 
	C141.796387,187.455368 142.158051,187.468323 155.732742,177.324509 
	C160.317810,184.115265 164.068161,185.540192 171.166000,182.832932 
	C178.781525,179.928238 184.027588,174.098160 188.803482,167.824265 
	C189.346954,167.110352 189.046310,165.753876 189.137085,164.695343 
	C188.690414,164.519073 188.243729,164.342819 187.797058,164.166550 
	C186.392334,165.704102 185.197113,167.533585 183.541580,168.721649 
	C179.416092,171.682266 175.369339,175.064560 170.747269,176.931335 
	C166.341125,178.710892 164.709732,176.486252 165.380371,173.193863 
	C170.778152,170.396301 175.626541,168.662521 179.501251,165.668640 
	C183.872192,162.291290 184.425339,156.863312 181.910477,153.691498 
	C179.166489,150.230652 173.651215,149.502304 169.348251,153.294144 
	C165.208069,156.942551 162.150864,161.814590 158.585342,166.122116 
	C155.857727,169.417389 153.347290,172.958054 150.240692,175.853607 
	C147.667938,178.251602 145.343704,176.354080 143.548538,174.057587 
	C141.857590,171.894440 140.897903,169.820557 143.665314,167.659775 
	C147.462784,164.694687 151.278488,161.731522 154.831772,158.488571 
	C155.860489,157.549713 156.016418,155.654541 156.572464,154.197800 
	C154.974350,154.079971 152.751221,153.228882 151.883774,153.968246 
	C147.592270,157.626175 143.652054,161.697250 139.603653,165.638748 
	C138.297501,166.910431 137.039093,168.231171 135.758850,169.529465 
	C135.401749,169.257446 135.044647,168.985428 134.687546,168.713409 
	C135.367783,167.093048 135.885498,165.378922 136.756699,163.868729 
	C140.330551,157.673584 144.128418,151.603958 147.548355,145.327148 
	C148.175705,144.175751 147.972260,141.424896 147.187073,140.923325 
	C146.050430,140.197220 143.731384,140.323730 142.471436,141.049500 
	C140.999466,141.897415 139.915207,143.662918 139.026062,145.235718 
	C135.179794,152.039383 131.368286,158.866638 127.735886,165.785995 
	C124.901382,171.185440 121.037819,175.476349 114.662369,179.690033 
	C115.365105,176.547577 115.454445,174.744492 116.165939,173.234589 
	C118.148407,169.027466 120.578529,165.023834 122.419266,160.761658 
	C123.019981,159.370697 122.350632,157.431259 122.262146,155.742661 
	C120.419540,156.089233 117.906425,155.807663 116.872269,156.911575 
	C114.637543,159.297058 113.339745,162.528793 111.333481,165.167053 
	C108.233589,169.243439 104.991768,173.232483 101.530380,177.001663 
	C100.398521,178.234177 98.395164,178.666336 96.790375,179.464523 
	C96.293739,178.980667 95.797096,178.496796 95.300461,178.012924 
	C98.791496,172.295181 102.282539,166.577454 106.058250,160.143295 
M38.194492,147.557266 
	C36.057156,149.637558 33.595459,151.477295 31.841648,153.842041 
	C25.938351,161.801727 27.501320,168.834244 36.035847,173.864182 
	C37.754444,174.877075 39.772694,175.529388 41.203823,176.838684 
	C42.515285,178.038483 44.224091,180.138123 43.924355,181.408783 
	C43.590580,182.823730 41.325436,184.417816 39.656887,184.766891 
	C34.155285,185.917831 29.396168,184.207413 26.116734,179.486694 
	C24.849504,177.662521 24.113331,175.469421 23.142712,173.459946 
	C15.933249,176.874649 17.762094,185.735489 22.516527,189.176010 
	C29.557926,194.271500 42.451500,193.044403 48.221157,186.474014 
	C52.649979,181.430542 52.196877,174.856552 46.965202,170.655396 
	C44.769596,168.892273 41.790321,167.878998 40.104225,165.774277 
	C38.574402,163.864594 37.105206,160.559891 37.735027,158.529663 
	C39.353035,153.314056 43.723110,150.243256 49.006870,148.957611 
	C52.465946,148.115936 53.930206,149.845520 52.427830,153.084167 
	C51.053551,156.046631 49.004192,158.695938 47.079693,161.757904 
	C50.443642,164.150360 53.195778,162.604935 55.622776,160.568024 
	C59.339073,157.449051 61.175133,153.383713 59.676880,148.561295 
	C58.490105,144.741394 55.093670,142.796616 51.503025,143.297882 
	C47.174294,143.902206 43.026409,145.801941 38.194492,147.557266 
M131.233032,144.750183 
	C130.540680,143.183792 129.848343,141.617386 129.155991,140.050995 
	C127.050972,141.289551 124.590256,142.194778 122.988037,143.904510 
	C122.162689,144.785248 122.865440,147.097961 122.877701,148.763626 
	C124.837715,148.514893 126.872200,148.502136 128.726074,147.917068 
	C129.641998,147.627991 130.224823,146.283325 131.233032,144.750183 
z"/>
<path fill="#4B291B" opacity="1.000000" stroke="none" 
	d="
M319.451294,139.794006 
	C317.965027,139.778000 316.384155,140.088181 315.008942,139.689270 
	C309.197845,138.003586 304.623413,139.097931 301.477478,144.689651 
	C300.237427,146.893784 298.403320,147.395676 296.097229,145.622101 
	C289.558441,140.593201 282.050293,141.616364 274.807037,143.028351 
	C268.704773,144.217926 268.859985,144.640289 267.851013,138.753510 
	C267.266785,135.344757 266.353180,131.992447 265.259399,127.948441 
	C254.875000,97.656311 235.530182,77.582893 204.701111,68.785553 
	C188.659134,64.162979 172.877045,64.075218 156.672623,68.135674 
	C149.061127,71.017952 141.714752,73.602753 134.656250,76.819290 
	C131.633469,78.196770 129.209900,80.889206 126.305496,83.001801 
	C125.720116,83.190826 125.343315,83.362228 124.649063,83.709167 
	C120.878883,87.256294 117.426155,90.627899 113.990105,94.003891 
	C114.006775,94.008286 113.999687,93.974533 113.689651,94.112534 
	C110.238754,98.192596 107.097900,102.134666 103.960373,106.233757 
	C103.963692,106.390778 103.999474,106.702850 103.760086,106.907585 
	C102.985962,107.739960 102.451218,108.367607 101.734940,109.144531 
	C101.325241,109.515823 101.144867,109.771561 100.982803,110.429672 
	C100.961655,111.535995 100.969978,112.273659 100.995407,113.012550 
	C101.012512,113.013786 101.011848,112.979492 100.778862,113.102409 
	C100.316681,113.491714 100.087494,113.758102 99.533142,114.131195 
	C98.247856,115.730362 96.762505,117.112450 96.421532,118.735023 
	C95.167854,124.700920 91.264397,129.877792 92.314484,136.665939 
	C92.813980,139.894821 92.990891,141.218094 96.698929,140.822220 
	C100.052299,140.863571 102.975693,140.910538 105.899078,140.957489 
	C108.671349,140.977722 111.445534,141.070694 114.215355,140.997818 
	C117.008789,140.924316 117.870125,142.276016 118.045799,144.938217 
	C118.408447,150.433746 113.611366,155.614532 106.958694,153.138641 
	C101.135933,150.971634 96.434158,145.456039 89.231750,146.580536 
	C87.907227,146.787354 86.093307,144.433487 84.636871,143.116074 
	C79.909798,138.840225 76.746002,139.029755 72.460609,143.733719 
	C71.255844,145.056183 69.784119,146.345337 68.171165,146.987991 
	C67.476082,147.264954 66.110329,145.858688 65.087135,144.379181 
	C65.140213,139.888855 65.123299,136.235947 65.176842,132.584091 
	C65.318398,122.930214 69.341675,118.662193 78.817802,119.083382 
	C84.171387,119.321342 87.340332,117.911285 87.587563,111.962975 
	C83.106323,111.962975 78.631790,111.862343 74.163322,111.984253 
	C65.288109,112.226387 59.312874,118.088303 58.869556,127.055756 
	C58.673084,131.029968 58.831490,135.021713 58.828804,139.005508 
	C56.331936,135.069901 52.445629,139.252182 49.293251,137.209839 
	C53.307014,137.233154 54.503944,134.827927 54.094036,131.025497 
	C53.234116,123.048622 55.199852,116.075294 62.216568,111.566162 
	C65.401398,109.519516 69.130539,108.027031 72.818886,107.148666 
	C75.811783,106.435913 79.180824,106.600594 82.262833,107.107323 
	C89.097832,108.231102 92.507675,104.659821 96.200554,99.462036 
	C108.252579,82.498604 123.179733,69.022079 143.248260,61.624722 
	C157.982346,56.193668 172.905151,55.352409 188.266769,56.472317 
	C213.661148,58.323639 234.104111,70.117561 251.367584,87.970383 
	C255.895554,92.652931 259.136871,98.578453 262.979187,103.925903 
	C264.203644,105.630035 265.460754,107.310745 267.171448,109.640190 
	C273.650726,102.499733 279.649536,95.815994 285.728516,89.205963 
	C295.713409,78.348740 297.007690,64.782677 298.093872,51.005455 
	C298.689270,43.452915 299.766327,35.877537 301.395294,28.481848 
	C303.713776,17.955624 313.775116,8.681064 322.711426,7.957765 
	C335.562683,6.917591 346.407379,17.205526 347.117676,30.650881 
	C347.608917,39.949131 344.667480,48.270432 341.128204,56.579601 
	C337.272491,65.631798 332.914062,74.574074 330.219177,83.978172 
	C328.555115,89.785202 329.392517,96.367867 329.488525,102.596436 
	C329.538910,105.864876 331.465332,107.243034 335.091980,107.129128 
	C344.575592,106.831268 354.074463,107.002113 363.567200,107.017532 
	C379.148895,107.042847 386.074371,112.441696 389.737305,127.649780 
	C388.221649,128.003067 386.602570,128.001343 384.507996,127.625664 
	C383.691345,125.833473 383.350281,124.415253 383.004761,122.637482 
	C381.048676,116.571243 377.006775,112.486992 371.169891,112.242798 
	C358.112946,111.696548 345.017426,112.071930 331.533844,112.071930 
	C331.853333,114.159210 332.117523,115.885048 332.464355,118.151077 
	C342.414642,118.151077 352.178436,118.136467 361.942169,118.155350 
	C370.979187,118.172829 375.880615,122.546547 377.154663,131.676697 
	C375.466858,138.470428 372.238098,140.125793 365.927429,138.733490 
	C362.731323,138.028336 359.079987,138.625870 355.785339,139.335251 
	C352.283569,140.089233 350.396606,140.266266 349.727112,135.721329 
	C349.344543,133.124222 346.914001,129.530899 344.661285,128.850586 
	C342.105957,128.078888 338.335510,129.438812 335.791016,131.005310 
	C332.658417,132.933899 330.360840,136.173309 327.454651,138.542297 
	C326.551086,139.278854 324.842072,139.027267 323.387939,138.789490 
	C324.513885,136.609604 326.982269,134.723892 326.797272,133.149994 
	C325.433746,121.546913 323.561676,110.002777 321.751923,98.455406 
	C321.661804,97.880241 320.665253,97.447128 319.805511,96.733780 
	C313.348785,94.599403 307.177368,92.679123 300.660950,90.601151 
	C297.614990,90.835930 293.888550,90.236633 292.386993,91.789162 
	C285.123840,99.298874 278.436005,107.367455 271.616272,115.299866 
	C270.926941,116.101677 270.160248,117.464043 270.381592,118.320038 
	C271.825317,123.903130 273.531921,129.418243 275.218445,135.332230 
	C275.408203,135.988144 275.541962,136.515808 275.654633,136.511353 
	C286.290771,136.090866 296.922974,135.413422 307.561371,135.295639 
	C311.010376,135.257462 314.475494,136.678345 318.039917,137.695251 
	C318.581482,138.570435 319.016388,139.182220 319.451294,139.794006 
M306.309509,69.088562 
	C301.444702,69.303642 300.463318,70.797806 299.824219,79.740021 
	C302.273987,79.740021 304.675934,79.740021 307.822876,79.942253 
	C312.650482,81.510681 317.478088,83.079109 322.395813,84.676811 
	C323.049713,82.345016 323.910004,80.151062 324.199005,77.884262 
	C324.347382,76.720596 323.773712,74.596901 323.017395,74.325562 
	C317.788879,72.449707 312.426300,70.947578 306.309509,69.088562 
M322.376709,14.988127 
	C314.139404,16.463999 309.462219,22.156406 307.632996,29.533844 
	C305.374908,38.641205 304.442993,48.077393 302.880127,57.729084 
	C305.790009,58.009029 307.740173,58.196651 310.404114,58.675762 
	C316.654785,60.547764 322.905487,62.419765 329.632812,64.434517 
	C331.982727,59.303219 335.252533,53.951591 336.877960,48.140030 
	C338.717194,41.564304 340.155853,34.522842 339.823395,27.779799 
	C339.372314,18.630308 332.290283,14.023866 322.376709,14.988127 
z"/>
<path fill="#4E2E1E" opacity="1.000000" stroke="none" 
	d="
M45.395050,196.195175 
	C49.583336,193.775909 54.090130,191.042023 59.695869,194.811188 
	C61.083870,196.522415 62.031879,197.882278 63.305241,198.781296 
	C69.579514,203.211014 76.566040,205.556076 84.295486,205.497223 
	C95.942543,205.408539 107.589462,205.237823 119.236549,205.227631 
	C177.014465,205.177063 234.792435,205.171112 292.570374,205.128403 
	C294.386597,205.127060 296.202667,204.896805 298.431274,204.899445 
	C300.555969,204.945251 302.268158,204.864853 304.430786,204.928894 
	C320.926208,204.956665 336.971283,204.839996 353.441681,204.844208 
	C363.987915,204.828140 372.744202,201.612595 379.665649,193.469788 
	C380.378143,192.568024 380.820953,191.845612 381.550171,190.921936 
	C382.642944,188.479660 383.449371,186.238663 384.255798,183.997665 
	C384.951569,185.514038 386.233917,187.040222 386.208740,188.544525 
	C386.168640,190.936966 385.925751,192.899612 389.468689,192.993347 
	C390.765625,199.307404 386.862885,202.988770 382.419739,206.181808 
	C375.336365,211.272186 367.979919,215.854950 358.068970,215.697998 
	C355.507294,215.290115 353.687744,215.082611 351.867889,215.080063 
	C329.210266,215.048248 306.552643,215.028336 283.894989,215.040085 
	C226.252075,215.069962 168.609161,215.117416 110.502235,215.111893 
	C104.925446,215.053665 99.809410,214.922623 94.700851,215.063339 
	C89.822556,215.197693 84.952042,215.615036 80.078110,215.907974 
	C67.893616,214.502106 57.963821,209.054321 50.213558,199.509216 
	C49.080952,198.114304 47.258411,197.279572 45.395050,196.195175 
z"/>
<path fill="#6E5C49" opacity="1.000000" stroke="none" 
	d="
M110.966255,215.157837 
	C168.609161,215.117416 226.252075,215.069962 283.894989,215.040085 
	C306.552643,215.028336 329.210266,215.048248 351.867889,215.080063 
	C353.687744,215.082611 355.507294,215.290115 357.641235,215.667328 
	C275.942963,215.937469 193.930481,215.942688 111.448586,215.723480 
	C110.979164,215.499039 110.966255,215.157837 110.966255,215.157837 
z"/>
<path fill="#766553" opacity="1.000000" stroke="none" 
	d="
M110.502235,215.111877 
	C110.966255,215.157837 110.979164,215.499039 110.981705,215.669739 
	C100.990570,215.887268 90.996887,215.934128 80.540657,215.944473 
	C84.952042,215.615036 89.822556,215.197693 94.700851,215.063339 
	C99.809410,214.922623 104.925446,215.053665 110.502235,215.111877 
z"/>
<path fill="#EF6825" opacity="1.000000" stroke="none" 
	d="
M178.666153,122.077774 
	C175.087112,120.982567 171.525040,119.034424 167.925659,118.962891 
	C159.423157,118.793892 153.884247,125.941338 155.226685,134.391190 
	C155.427750,135.656723 155.691605,136.912247 156.244843,139.881363 
	C149.454971,134.658920 143.334610,130.012009 136.985138,138.363602 
	C130.453796,132.232285 124.574509,133.155243 118.447014,138.842270 
	C116.902840,140.275452 113.457161,139.659882 110.235825,139.640182 
	C109.157379,136.788803 108.168541,134.223694 108.426369,131.790710 
	C108.847679,127.815300 110.081200,123.925957 111.129929,119.687454 
	C116.142097,107.834564 123.487328,98.128555 133.232590,89.805984 
	C142.433289,84.538155 151.343369,79.445183 160.238617,74.326439 
	C161.908676,73.365402 163.519485,72.301407 165.573349,71.208588 
	C209.953873,62.895584 246.093277,94.505211 254.204727,117.792725 
	C252.157578,117.919991 250.157379,118.044334 247.840332,118.188377 
	C250.579941,121.261047 256.499664,118.652916 257.246857,124.955307 
	C248.132523,124.118301 239.449417,123.320900 230.766327,122.523499 
	C230.717224,122.989815 230.668137,123.456131 230.619049,123.922455 
	C238.365738,125.294289 246.112442,126.666130 253.859131,128.037964 
	C252.448181,128.670395 251.037231,129.302826 249.077972,129.707123 
	C247.735062,129.513702 246.940491,129.548447 245.863586,129.627716 
	C245.027328,129.569992 244.473389,129.467743 243.634659,129.058289 
	C239.054138,128.523468 234.758423,128.295853 230.268829,128.218536 
	C229.739670,128.451904 229.422180,128.407608 228.805145,127.971687 
	C225.369354,127.677971 222.250916,127.648514 218.741089,127.651863 
	C217.568542,127.619354 216.787338,127.554047 215.721130,127.254730 
	C213.678101,126.679634 211.934143,126.196739 210.159775,126.020889 
	C200.049576,125.018929 189.932129,124.090172 179.817139,123.136536 
	C179.817139,123.136543 179.883926,123.050873 179.749420,122.864578 
	C179.298645,122.478119 178.982407,122.277946 178.666153,122.077774 
M154.100159,82.916458 
	C153.723068,83.602890 153.345978,84.289314 152.664047,85.683105 
	C151.119415,90.084999 152.450043,93.481972 156.360535,95.864502 
	C162.536484,99.627304 172.997284,96.570000 176.241531,90.108620 
	C178.362778,85.883888 177.124374,81.974220 172.666199,79.333008 
	C167.104477,75.185684 159.909714,76.447212 154.100159,82.916458 
M190.451675,94.191093 
	C189.927826,94.703262 189.403961,95.215431 188.417068,96.013428 
	C188.263550,96.334198 188.110031,96.654968 187.524124,97.549706 
	C185.212082,104.808411 187.258041,110.480377 193.502335,114.122910 
	C199.941177,117.878929 206.169296,117.165787 211.650681,111.688126 
	C216.484055,102.854477 212.231216,93.825150 201.506454,91.358017 
	C199.339798,91.552032 197.173126,91.746040 194.396347,92.008324 
	C194.076828,92.252876 193.757309,92.497429 193.216217,92.623672 
	C193.216217,92.623672 193.002182,92.755142 192.383209,92.839394 
	C191.910599,93.218483 191.437988,93.597572 190.451675,94.191093 
z"/>
<path fill="#F5D4AA" opacity="1.000000" stroke="none" 
	d="
M298.018799,204.773254 
	C296.202667,204.896805 294.386597,205.127060 292.570374,205.128403 
	C234.792435,205.171112 177.014465,205.177063 119.236549,205.227631 
	C107.589462,205.237823 95.942543,205.408539 84.295486,205.497223 
	C76.566040,205.556076 69.579514,203.211014 63.305241,198.781296 
	C62.031879,197.882278 61.083870,196.522415 59.958572,194.996536 
	C64.465729,193.388046 68.975143,192.051865 73.545509,190.974167 
	C75.732246,190.458527 78.311829,189.650452 80.232727,190.331284 
	C86.104996,192.412537 91.620979,193.472137 98.139481,192.541107 
	C107.356598,191.224655 116.864632,191.974777 126.246925,191.776031 
	C134.724396,191.596436 143.199814,191.138123 151.676437,191.130463 
	C215.162277,191.073120 278.648254,191.060349 342.134033,191.144714 
	C349.608917,191.154633 356.386108,189.812057 363.235474,186.370453 
	C367.327271,184.314453 372.920624,185.246964 378.602539,184.970993 
	C379.998657,187.111649 380.631226,189.117432 381.263794,191.123215 
	C380.820953,191.845612 380.378143,192.568024 379.452148,193.227219 
	C378.104187,193.309265 376.981079,193.155853 376.414490,193.645889 
	C370.580627,198.691559 364.040344,201.849655 356.181702,202.177383 
	C355.093048,202.222778 354.069824,203.835922 353.016327,204.723312 
	C336.971283,204.839996 320.926208,204.956665 304.283081,204.624023 
	C301.796234,204.374222 299.907532,204.573746 298.018799,204.773254 
z"/>
<path fill="#ED792E" opacity="1.000000" stroke="none" 
	d="
M207.075043,177.073990 
	C205.862808,179.810974 204.793762,182.203293 203.639679,184.785919 
	C200.035278,182.420441 200.406189,179.322128 201.507614,176.543549 
	C206.950165,162.813766 214.363495,150.242416 224.275314,139.223450 
	C225.045822,138.366898 225.965942,137.199570 226.940521,137.063263 
	C229.069107,136.765579 231.574539,136.438843 233.338089,137.311768 
	C234.339859,137.807617 234.788925,140.780289 234.436707,142.410629 
	C233.075745,148.709824 231.292252,154.917740 229.666183,161.159668 
	C230.049835,161.366013 230.433487,161.572342 230.817139,161.778671 
	C232.355530,159.746429 233.786499,157.621140 235.451767,155.698807 
	C241.220474,149.039520 246.917145,142.306000 252.960266,135.901794 
	C255.628326,133.074295 259.360565,132.064804 261.699493,136.259140 
	C262.644562,137.953918 262.399200,141.020554 261.512787,142.907181 
	C257.484802,151.480133 252.990387,159.832733 248.775940,168.320282 
	C247.946487,169.990723 247.612259,171.907059 247.600159,174.038223 
	C253.773849,170.847610 257.738129,165.709808 261.738068,160.447556 
	C265.018921,156.131332 268.606750,151.851517 272.807251,148.491684 
	C276.357208,145.652176 280.974457,144.319580 284.921936,149.137222 
	C285.640228,148.549789 286.243530,147.641068 286.883240,147.614670 
	C288.506195,147.547668 290.459625,147.412537 291.657593,148.224319 
	C292.350372,148.693756 292.323517,151.170334 291.776306,152.352966 
	C289.893707,156.421738 287.534546,160.267654 285.576355,164.304871 
	C284.757874,165.992340 284.490112,167.946915 284.988190,170.518478 
	C286.506317,169.429825 288.354919,168.608246 289.486877,167.207504 
	C295.192902,160.146606 300.794373,152.996506 306.245514,145.737259 
	C307.825195,143.633621 309.185120,142.141235 311.933197,143.572128 
	C314.439667,144.877197 315.338562,146.377197 314.593140,149.568405 
	C313.326019,154.993286 312.997681,160.637451 312.274811,166.189468 
	C312.904327,166.527496 313.533844,166.865524 314.163391,167.203568 
	C318.765625,161.796600 323.367889,156.389633 327.454346,151.588638 
	C326.194183,149.118744 325.400085,147.562363 324.606018,146.005981 
	C326.159637,145.370102 327.772949,144.846954 329.249451,144.065369 
	C330.613586,143.343231 332.081238,142.559052 333.059387,141.420731 
	C334.897064,139.282059 336.403809,136.860443 338.067871,134.570816 
	C340.513733,131.205597 343.010162,130.924942 345.867554,134.844070 
	C344.123352,137.416000 342.306793,140.094559 340.164032,143.254120 
	C342.537323,143.632416 344.351166,143.921524 346.585114,144.277618 
	C344.377991,150.488983 335.484833,146.198364 333.977203,153.400589 
	C332.922516,158.438889 328.785034,162.765854 329.388580,169.398895 
	C336.303284,166.805237 340.724121,163.058502 344.085999,157.602371 
	C346.671967,153.405548 349.730682,149.424866 353.070343,145.800659 
	C354.643219,144.093735 357.333282,142.641861 359.583679,142.539658 
	C362.106445,142.425095 365.575989,143.246750 367.021393,144.994400 
	C368.428772,146.696167 368.787659,150.501175 367.879761,152.654449 
	C364.927460,159.656189 358.952850,162.586349 350.736664,162.386917 
	C351.012238,164.383270 350.672791,166.880081 351.608154,167.523422 
	C352.966736,168.457855 355.443787,168.662552 357.098389,168.121689 
	C366.443115,165.066971 371.793701,157.613876 376.456299,149.591492 
	C376.909698,148.811386 376.076782,147.381378 376.270020,146.332062 
	C376.674744,144.134491 376.763794,141.441727 378.102142,139.971680 
	C379.542938,138.389084 382.264984,137.972916 384.428009,137.047852 
	C384.889343,138.817291 385.350647,140.586731 385.989746,143.038071 
	C387.433167,142.958450 389.509735,142.695984 391.572083,142.780518 
	C393.019501,142.839859 395.255035,142.958557 395.683746,143.795761 
	C396.244263,144.890350 395.744812,146.928879 395.041534,148.194809 
	C392.862152,152.117844 390.287842,155.819672 388.041931,159.708466 
	C387.188141,161.186905 386.810547,162.940308 385.923248,165.369598 
	C393.811768,164.306213 396.118500,157.301529 402.309235,153.304626 
	C401.976746,155.517960 402.209778,156.989212 401.591064,157.605957 
	C396.777679,162.403732 392.077301,167.396561 386.720764,171.522598 
	C384.887756,172.934525 380.190521,173.212387 378.782349,171.893631 
	C377.251617,170.460114 377.026062,166.144989 378.000244,163.830933 
	C380.101562,158.839554 383.335358,154.324905 385.475739,148.486130 
	C383.095856,150.153503 380.341553,151.474380 378.412506,153.558945 
	C374.131897,158.184570 370.628296,163.571823 366.102051,167.912567 
	C363.083557,170.807373 359.077362,173.082520 355.106873,174.483429 
	C348.248047,176.903427 344.029846,174.408768 341.422211,167.138412 
	C339.156952,168.937515 337.219574,171.125916 334.789825,172.250443 
	C331.329437,173.851990 327.396484,175.727539 323.889709,175.357956 
	C322.267151,175.186951 321.174591,169.987183 320.002197,167.418777 
	C316.037598,170.190216 311.697083,174.259399 306.562836,176.547455 
	C300.364166,179.309845 295.834015,175.426086 292.750610,169.839203 
	C290.524139,171.841553 288.891815,173.900986 286.768890,175.068115 
	C284.153503,176.506012 280.892792,178.330963 278.368683,177.802490 
	C276.795410,177.473099 276.068146,173.102859 274.901154,170.407349 
	C273.707397,171.711258 272.060822,173.651627 270.266205,175.443756 
	C264.436462,181.265381 260.053619,180.529770 256.648865,172.953522 
	C253.584366,175.533401 250.821274,178.468704 247.487457,180.437561 
	C245.488739,181.617966 241.814453,182.388428 240.328171,181.329376 
	C238.829849,180.261734 238.178314,176.444214 238.781784,174.286224 
	C240.475845,168.228119 242.997849,162.400574 245.215881,156.490570 
	C245.825165,154.867096 246.513779,153.273376 247.166000,151.666016 
	C246.749664,151.403931 246.333313,151.141846 245.916962,150.879776 
	C242.694687,154.984619 239.310516,158.974548 236.293900,163.225342 
	C233.021851,167.836105 230.196701,172.763153 226.949387,177.392838 
	C225.974579,178.782623 224.239166,179.638916 222.852203,180.739624 
	C221.655045,178.585403 219.260925,176.299072 219.481415,174.301315 
	C220.190247,167.879288 221.866364,161.564178 223.164688,155.206863 
	C223.416077,153.975937 223.646179,152.740646 223.886093,151.507370 
	C223.347824,151.234634 222.809555,150.961884 222.271286,150.689148 
	C217.253601,159.369217 212.235916,168.049271 207.075043,177.073990 
M271.909302,168.444626 
	C275.024017,164.123840 278.246857,159.874207 281.171783,155.428543 
	C281.841278,154.410965 281.484222,152.718002 281.599640,151.335861 
	C280.108307,151.543991 277.899841,151.201187 277.245819,152.052551 
	C273.829590,156.499573 270.662537,161.160629 267.730835,165.944565 
	C266.747009,167.549988 266.712158,169.736954 266.243561,171.658096 
	C266.657318,171.881958 267.071045,172.105820 267.484802,172.329681 
	C268.800934,171.215866 270.117035,170.102051 271.909302,168.444626 
M299.154083,170.716461 
	C302.203796,171.899811 303.670563,170.159607 304.127808,167.595642 
	C304.866180,163.454926 305.234558,159.248245 305.759186,155.069412 
	C302.642700,157.146759 300.737946,159.810547 298.502533,162.159698 
	C295.804596,164.994858 295.677887,167.557510 299.154083,170.716461 
M362.893036,146.820496 
	C361.921265,146.863632 360.467712,146.511002 360.054993,147.013412 
	C357.132996,150.570221 354.424408,154.302399 351.647766,157.978653 
	C352.162933,158.381912 352.678070,158.785156 353.193237,159.188400 
	C358.505005,157.212479 361.359497,152.961121 362.893036,146.820496 
z"/>
<path fill="#ED792E" opacity="1.000000" stroke="none" 
	d="
M105.915909,160.501495 
	C102.282539,166.577454 98.791496,172.295181 95.300461,178.012924 
	C95.797096,178.496796 96.293739,178.980667 96.790375,179.464523 
	C98.395164,178.666336 100.398521,178.234177 101.530380,177.001663 
	C104.991768,173.232483 108.233589,169.243439 111.333481,165.167053 
	C113.339745,162.528793 114.637543,159.297058 116.872269,156.911575 
	C117.906425,155.807663 120.419540,156.089233 122.262146,155.742661 
	C122.350632,157.431259 123.019981,159.370697 122.419266,160.761658 
	C120.578529,165.023834 118.148407,169.027466 116.165939,173.234589 
	C115.454445,174.744492 115.365105,176.547577 114.662369,179.690033 
	C121.037819,175.476349 124.901382,171.185440 127.735886,165.785995 
	C131.368286,158.866638 135.179794,152.039383 139.026062,145.235718 
	C139.915207,143.662918 140.999466,141.897415 142.471436,141.049500 
	C143.731384,140.323730 146.050430,140.197220 147.187073,140.923325 
	C147.972260,141.424896 148.175705,144.175751 147.548355,145.327148 
	C144.128418,151.603958 140.330551,157.673584 136.756699,163.868729 
	C135.885498,165.378922 135.367783,167.093048 134.687546,168.713409 
	C135.044647,168.985428 135.401749,169.257446 135.758850,169.529465 
	C137.039093,168.231171 138.297501,166.910431 139.603653,165.638748 
	C143.652054,161.697250 147.592270,157.626175 151.883774,153.968246 
	C152.751221,153.228882 154.974350,154.079971 156.572464,154.197784 
	C156.016418,155.654541 155.860489,157.549713 154.831772,158.488571 
	C151.278488,161.731522 147.462784,164.694687 143.665314,167.659775 
	C140.897903,169.820557 141.857590,171.894440 143.548538,174.057587 
	C145.343704,176.354080 147.667938,178.251602 150.240692,175.853607 
	C153.347290,172.958054 155.857727,169.417389 158.585342,166.122116 
	C162.150864,161.814590 165.208069,156.942551 169.348251,153.294144 
	C173.651215,149.502304 179.166489,150.230652 181.910477,153.691498 
	C184.425339,156.863312 183.872192,162.291290 179.501251,165.668640 
	C175.626541,168.662521 170.778152,170.396301 165.380371,173.193863 
	C164.709732,176.486252 166.341125,178.710892 170.747269,176.931335 
	C175.369339,175.064560 179.416092,171.682266 183.541580,168.721649 
	C185.197113,167.533585 186.392334,165.704102 187.797058,164.166550 
	C188.243729,164.342819 188.690414,164.519073 189.137085,164.695343 
	C189.046310,165.753876 189.346954,167.110352 188.803482,167.824265 
	C184.027588,174.098160 178.781525,179.928238 171.166000,182.832932 
	C164.068161,185.540192 160.317810,184.115265 155.732742,177.324509 
	C142.158051,187.468323 141.796387,187.455368 135.845917,176.059906 
	C133.968430,178.398880 132.331329,180.644135 130.466568,182.680954 
	C129.421585,183.822357 127.587639,185.649292 126.835983,185.348862 
	C125.413055,184.780136 124.446259,182.949936 123.429138,181.543198 
	C123.000641,180.950562 122.925194,180.102631 122.588715,179.058899 
	C120.539871,180.787582 118.847626,182.374863 116.996811,183.748459 
	C110.239174,188.763687 106.968796,187.508865 105.546783,179.024445 
	C102.527954,181.307068 99.907646,183.997772 96.723495,185.464325 
	C94.314911,186.573669 90.158127,187.317825 88.660965,186.032608 
	C87.092789,184.686447 87.221992,180.640320 87.633987,177.930069 
	C87.987770,175.602661 89.700684,173.443924 90.970680,171.304459 
	C92.227501,169.187119 93.682228,167.187256 95.209648,164.896698 
	C92.353798,163.211517 90.738693,163.887909 88.840599,166.244339 
	C84.466286,171.674911 79.811493,176.894104 75.039017,181.981918 
	C73.248589,183.890656 71.020370,185.751556 68.623535,186.632919 
	C65.887848,187.638885 61.789101,188.825089 60.039787,187.540405 
	C58.267361,186.238770 57.757881,181.853058 58.260986,179.104797 
	C59.269276,173.596985 61.345158,168.284607 63.151993,162.325348 
	C62.850784,161.687561 62.090534,160.077805 61.330284,158.468033 
	C62.766628,157.910721 64.275368,157.487320 65.620033,156.760406 
	C67.124916,155.946854 68.756447,155.096710 69.844841,153.839874 
	C72.125946,151.205750 73.864342,148.072586 76.305626,145.622696 
	C77.113777,144.811691 79.559700,145.074661 80.918297,145.648315 
	C81.452286,145.873795 81.516640,148.500381 80.988068,149.668396 
	C80.065483,151.707062 78.518272,153.463043 76.964828,155.728317 
	C79.423599,155.993393 81.177567,156.182495 82.931541,156.371582 
	C83.153305,156.888260 83.375076,157.404938 83.596848,157.921616 
	C81.543571,158.901367 79.540115,160.546234 77.425323,160.704651 
	C74.270752,160.940933 72.611275,162.318344 71.438210,164.988251 
	C69.217644,170.042282 65.679100,174.670151 66.163734,181.607941 
	C68.541756,180.638397 70.659637,180.346283 71.932213,179.152832 
	C76.398018,174.964706 80.756126,170.623856 84.741989,165.985947 
	C85.878571,164.663467 85.570915,162.127014 86.002975,160.164291 
	C86.453529,158.117569 86.408569,155.550247 87.652847,154.196060 
	C89.140457,152.577026 91.765472,152.003067 93.897835,150.976440 
	C94.484138,152.712524 95.070442,154.448608 95.915146,156.949875 
	C97.298927,156.887970 99.457253,157.157196 101.394623,156.623825 
	C104.772377,155.693909 106.132645,156.808441 105.915909,160.501495 
M167.183762,165.759384 
	C167.557480,166.405396 168.007706,167.644928 168.293411,167.608109 
	C172.371765,167.082413 177.351288,159.611954 175.588318,154.165710 
	C172.891129,157.810257 170.193954,161.454819 167.183762,165.759384 
M133.601181,170.248291 
	C133.956787,170.332626 134.312408,170.416946 134.668015,170.501282 
	C134.456497,170.284760 134.244995,170.068253 133.601181,170.248291 
z"/>
<path fill="#EE792E" opacity="1.000000" stroke="none" 
	d="
M38.497368,147.349091 
	C43.026409,145.801941 47.174294,143.902206 51.503025,143.297882 
	C55.093670,142.796616 58.490105,144.741394 59.676880,148.561295 
	C61.175133,153.383713 59.339073,157.449051 55.622776,160.568024 
	C53.195778,162.604935 50.443642,164.150360 47.079693,161.757904 
	C49.004192,158.695938 51.053551,156.046631 52.427830,153.084167 
	C53.930206,149.845520 52.465946,148.115936 49.006870,148.957611 
	C43.723110,150.243256 39.353035,153.314056 37.735027,158.529663 
	C37.105206,160.559891 38.574402,163.864594 40.104225,165.774277 
	C41.790321,167.878998 44.769596,168.892273 46.965202,170.655396 
	C52.196877,174.856552 52.649979,181.430542 48.221157,186.474014 
	C42.451500,193.044403 29.557926,194.271500 22.516527,189.176010 
	C17.762094,185.735489 15.933249,176.874649 23.142712,173.459946 
	C24.113331,175.469421 24.849504,177.662521 26.116734,179.486694 
	C29.396168,184.207413 34.155285,185.917831 39.656887,184.766891 
	C41.325436,184.417816 43.590580,182.823730 43.924355,181.408783 
	C44.224091,180.138123 42.515285,178.038483 41.203823,176.838684 
	C39.772694,175.529388 37.754444,174.877075 36.035847,173.864182 
	C27.501320,168.834244 25.938351,161.801727 31.841648,153.842041 
	C33.595459,151.477295 36.057156,149.637558 38.497368,147.349091 
z"/>
<path fill="#5E2913" opacity="1.000000" stroke="none" 
	d="
M254.242279,128.021912 
	C246.112442,126.666130 238.365738,125.294289 230.619049,123.922455 
	C230.668137,123.456131 230.717224,122.989815 230.766327,122.523499 
	C239.449417,123.320900 248.132523,124.118301 257.246857,124.955307 
	C256.499664,118.652916 250.579941,121.261047 247.840332,118.188377 
	C250.157379,118.044334 252.157578,117.919991 254.204727,117.792725 
	C246.093277,94.505211 209.953873,62.895584 165.160278,71.141205 
	C151.744339,73.025497 140.080383,77.459122 130.255142,85.495102 
	C127.841637,87.469101 125.919434,90.297668 122.661148,91.917709 
	C121.917839,92.348869 121.455482,92.696106 120.787415,93.150528 
	C120.329025,93.450348 120.143356,93.694038 120.005905,93.988312 
	C119.987106,93.987823 119.997139,94.024086 119.698318,94.183838 
	C117.871841,96.840263 116.344177,99.336937 114.829819,101.888046 
	C114.843132,101.942490 114.863747,101.832321 114.556885,101.885170 
	C113.528618,102.635880 112.807220,103.333740 111.865349,104.142929 
	C111.366150,104.443268 111.148178,104.686676 110.725250,105.102829 
	C109.984718,105.810081 109.509911,106.399010 109.007256,106.988220 
	C108.979416,106.988495 108.992691,107.042572 108.778267,107.225815 
	C108.359695,107.925537 108.155556,108.442009 107.970535,108.970406 
	C107.989647,108.982323 107.955551,108.968933 107.753502,109.085587 
	C107.313843,109.417465 107.155090,109.680313 107.045479,110.004166 
	C107.015755,110.017540 107.019554,110.082611 106.798996,110.263329 
	C106.321609,110.949120 106.064774,111.454193 105.586662,112.174957 
	C104.860832,113.492165 104.356277,114.593666 103.621300,115.936264 
	C102.984566,117.925636 102.578255,119.673889 102.010803,122.115494 
	C97.112701,126.611870 96.776688,133.752029 96.268936,140.827835 
	C92.990891,141.218094 92.813980,139.894821 92.314484,136.665939 
	C91.264397,129.877792 95.167854,124.700920 96.421532,118.735023 
	C96.762505,117.112450 98.247856,115.730362 99.762131,113.997780 
	C100.548126,113.498268 100.779984,113.238884 101.011848,112.979492 
	C101.011848,112.979492 101.012512,113.013786 101.296318,112.831619 
	C102.386574,110.667244 103.193016,108.685043 103.999466,106.702850 
	C103.999474,106.702850 103.963692,106.390778 104.308517,106.169220 
	C107.768784,101.956619 110.884232,97.965576 113.999687,93.974533 
	C113.999687,93.974533 114.006775,94.008286 114.337372,93.970520 
	C117.324074,91.859741 120.106941,89.924568 122.578949,87.651352 
	C123.694038,86.625931 124.189774,84.926994 124.966515,83.533630 
	C125.343315,83.362228 125.720116,83.190826 126.705673,82.980949 
	C137.574463,78.329842 147.834503,73.717209 158.522476,69.097122 
	C174.454041,65.999496 189.824005,66.271660 205.380081,71.012924 
	C212.027359,74.022232 218.759567,76.253250 224.517838,79.986488 
	C241.468246,90.975899 254.546753,105.370163 260.985870,125.003845 
	C258.865723,126.004517 256.745575,127.005180 254.242279,128.021912 
z"/>
<path fill="#EB6726" opacity="1.000000" stroke="none" 
	d="
M179.932755,123.483131 
	C189.932129,124.090172 200.049576,125.018929 210.159775,126.020889 
	C211.934143,126.196739 213.678101,126.679634 215.336578,127.372002 
	C213.825500,127.926994 212.413940,128.130707 211.002396,128.334427 
	C211.022125,128.494125 211.041870,128.653824 211.061600,128.813538 
	C215.739243,129.532898 220.416885,130.252258 225.094513,130.971634 
	C220.365494,136.591446 214.135773,137.348465 207.237396,137.155807 
	C200.826019,136.976746 194.387802,137.823654 187.958771,138.169907 
	C186.194260,138.264938 184.420303,138.184357 183.922440,138.184357 
	C182.456955,132.754303 181.252655,128.292023 179.932755,123.483131 
z"/>
<path fill="#F3D3A8" opacity="1.000000" stroke="none" 
	d="
M377.404694,131.745361 
	C375.880615,122.546547 370.979187,118.172829 361.942169,118.155350 
	C352.178436,118.136467 342.414642,118.151077 332.464355,118.151077 
	C332.117523,115.885048 331.853333,114.159210 331.533844,112.071930 
	C345.017426,112.071930 358.112946,111.696548 371.169891,112.242798 
	C377.006775,112.486992 381.048676,116.571243 382.606750,122.660446 
	C376.966919,124.384308 379.648560,128.580704 379.123566,131.622299 
	C378.633942,131.686203 378.144348,131.750122 377.404694,131.745361 
z"/>
<path fill="#F4D5A9" opacity="1.000000" stroke="none" 
	d="
M59.125931,139.177399 
	C58.831490,135.021713 58.673084,131.029968 58.869556,127.055756 
	C59.312874,118.088303 65.288109,112.226387 74.163322,111.984253 
	C78.631790,111.862343 83.106323,111.962975 87.587563,111.962975 
	C87.340332,117.911285 84.171387,119.321342 78.817802,119.083382 
	C69.341675,118.662193 65.318398,122.930214 65.176842,132.584091 
	C65.123299,136.235947 65.140213,139.888855 65.083511,144.046097 
	C63.169025,142.817032 61.296043,141.083160 59.125931,139.177399 
z"/>
<path fill="#954525" opacity="1.000000" stroke="none" 
	d="
M261.066406,125.322372 
	C254.546753,105.370163 241.468246,90.975899 224.517838,79.986488 
	C218.759567,76.253250 212.027359,74.022232 205.373779,70.694855 
	C205.006149,69.859459 205.004913,69.433952 205.003693,69.008453 
	C235.530182,77.582893 254.875000,97.656311 265.059265,127.639198 
	C263.247131,129.500092 263.079315,129.402267 261.066406,125.322372 
z"/>
<path fill="#BB5021" opacity="1.000000" stroke="none" 
	d="
M96.698929,140.822220 
	C96.776688,133.752029 97.112701,126.611870 102.010803,122.115494 
	C102.578255,119.673889 102.984566,117.925636 103.669617,116.361946 
	C104.330498,121.681862 108.325890,119.469193 110.972076,120.000305 
	C110.081200,123.925957 108.847679,127.815300 108.426369,131.790710 
	C108.168541,134.223694 109.157379,136.788803 109.803841,139.594040 
	C108.826401,140.084351 107.631470,140.275177 106.167801,140.711746 
	C102.975693,140.910538 100.052299,140.863571 96.698929,140.822220 
z"/>
<path fill="#CFB78E" opacity="1.000000" stroke="none" 
	d="
M319.749023,139.869263 
	C319.016388,139.182220 318.581482,138.570435 318.113281,137.289520 
	C318.762848,134.074493 319.984222,131.539215 320.034637,128.980850 
	C320.245026,118.306961 320.103333,107.626144 320.090759,96.947868 
	C320.665253,97.447128 321.661804,97.880241 321.751923,98.455406 
	C323.561676,110.002777 325.433746,121.546913 326.797272,133.149994 
	C326.982269,134.723892 324.513885,136.609604 323.062561,138.650238 
	C321.916260,139.281174 320.981506,139.612839 319.749023,139.869263 
z"/>
<path fill="#64240C" opacity="1.000000" stroke="none" 
	d="
M225.482391,130.905243 
	C220.416885,130.252258 215.739243,129.532898 211.061600,128.813538 
	C211.041870,128.653824 211.022125,128.494125 211.002396,128.334427 
	C212.413940,128.130707 213.825500,127.926994 215.621597,127.606010 
	C216.787338,127.554047 217.568542,127.619354 219.136612,127.751572 
	C222.989822,127.957634 226.056168,128.096786 229.122498,128.235947 
	C229.422180,128.407608 229.739670,128.451904 230.634308,128.490768 
	C235.435623,128.863617 239.677536,129.114548 243.919464,129.365494 
	C244.473389,129.467743 245.027328,129.569992 246.078339,129.759338 
	C246.718750,129.934280 246.862091,130.022141 247.005432,130.109985 
	C246.955811,130.632111 246.906189,131.154221 246.386154,132.018463 
	C242.698883,131.934830 239.482056,131.509094 236.265213,131.083344 
	C232.800232,131.001846 229.335236,130.920364 225.482391,130.905243 
z"/>
<path fill="#ED792E" opacity="1.000000" stroke="none" 
	d="
M131.095703,145.083237 
	C130.224823,146.283325 129.641998,147.627991 128.726074,147.917068 
	C126.872200,148.502136 124.837715,148.514893 122.877701,148.763626 
	C122.865440,147.097961 122.162689,144.785248 122.988037,143.904510 
	C124.590256,142.194778 127.050972,141.289551 129.155991,140.050995 
	C129.848343,141.617386 130.540680,143.183792 131.095703,145.083237 
z"/>
<path fill="#F4DEB8" opacity="1.000000" stroke="none" 
	d="
M381.550171,190.921936 
	C380.631226,189.117432 379.998657,187.111649 379.050995,185.004669 
	C378.870850,183.274979 379.005798,181.646515 379.163818,179.740005 
	C382.176910,178.947296 384.619751,178.752731 384.156769,183.595123 
	C383.449371,186.238663 382.642944,188.479660 381.550171,190.921936 
z"/>
<path fill="#FBE7C0" opacity="1.000000" stroke="none" 
	d="
M379.522491,131.545532 
	C379.648560,128.580704 376.966919,124.384308 382.611206,123.019997 
	C383.350281,124.415253 383.691345,125.833473 384.100677,127.625153 
	C384.534912,131.336319 381.798248,130.876328 379.522491,131.545532 
z"/>
<path fill="#CD5F26" opacity="1.000000" stroke="none" 
	d="
M236.397278,131.376190 
	C239.482056,131.509094 242.698883,131.934830 246.330490,132.407898 
	C243.700516,137.442719 241.761780,137.293518 236.397278,131.376190 
z"/>
<path fill="#EB6726" opacity="1.000000" stroke="none" 
	d="
M247.327042,130.060303 
	C246.862091,130.022141 246.718750,129.934280 246.360657,129.714813 
	C246.940491,129.548447 247.735062,129.513702 248.728943,129.637695 
	C248.501709,129.867828 248.075195,129.939224 247.327042,130.060303 
z"/>
<path fill="#EB6726" opacity="1.000000" stroke="none" 
	d="
M178.814636,122.329704 
	C178.982407,122.277946 179.298645,122.478119 179.791611,122.898773 
	C179.633255,122.940048 179.298187,122.760841 178.814636,122.329704 
z"/>
<path fill="#F8EDD5" opacity="1.000000" stroke="none" 
	d="
M319.805481,96.733780 
	C320.103333,107.626144 320.245026,118.306961 320.034637,128.980850 
	C319.984222,131.539215 318.762848,134.074493 318.006622,137.026123 
	C314.475494,136.678345 311.010376,135.257462 307.561371,135.295639 
	C296.922974,135.413422 286.290771,136.090866 275.654633,136.511353 
	C275.541962,136.515808 275.408203,135.988144 275.465485,135.094879 
	C280.286285,125.509926 284.668518,116.392647 289.655853,107.619347 
	C292.994476,101.746353 297.192474,96.361893 301.005920,90.758835 
	C307.177368,92.679123 313.348785,94.599403 319.805481,96.733780 
z"/>
<path fill="#F8EDD5" opacity="1.000000" stroke="none" 
	d="
M323.122467,15.237747 
	C332.290283,14.023866 339.372314,18.630308 339.823395,27.779799 
	C340.155853,34.522842 338.717194,41.564304 336.877960,48.140030 
	C335.252533,53.951591 331.982727,59.303219 329.632812,64.434517 
	C322.905487,62.419765 316.654785,60.547764 310.037170,58.040295 
	C310.268066,51.003345 310.619781,44.566891 311.523132,38.208813 
	C312.787567,29.309435 317.100525,21.807602 323.122467,15.237747 
z"/>
<path fill="#CEB68E" opacity="1.000000" stroke="none" 
	d="
M300.660950,90.601143 
	C297.192474,96.361893 292.994476,101.746353 289.655853,107.619347 
	C284.668518,116.392647 280.286285,125.509926 275.399628,134.718231 
	C273.531921,129.418243 271.825317,123.903130 270.381592,118.320038 
	C270.160248,117.464043 270.926941,116.101677 271.616272,115.299866 
	C278.436005,107.367455 285.123840,99.298874 292.386993,91.789162 
	C293.888550,90.236633 297.614990,90.835930 300.660950,90.601143 
z"/>
<path fill="#CCB48C" opacity="1.000000" stroke="none" 
	d="
M322.749573,15.112937 
	C317.100525,21.807602 312.787567,29.309435 311.523132,38.208813 
	C310.619781,44.566891 310.268066,51.003345 309.680298,57.894547 
	C307.740173,58.196651 305.790009,58.009029 302.880127,57.729084 
	C304.442993,48.077393 305.374908,38.641205 307.632996,29.533844 
	C309.462219,22.156406 314.139404,16.463999 322.749573,15.112937 
z"/>
<path fill="#EF8F32" opacity="1.000000" stroke="none" 
	d="
M307.106781,69.325386 
	C312.426300,70.947578 317.788879,72.449707 323.017395,74.325562 
	C323.773712,74.596901 324.347382,76.720596 324.199005,77.884262 
	C323.910004,80.151062 323.049713,82.345016 322.395813,84.676811 
	C317.478088,83.079109 312.650482,81.510681 307.437988,79.446899 
	C307.070953,75.742821 307.088867,72.534103 307.106781,69.325386 
z"/>
<path fill="#884224" opacity="1.000000" stroke="none" 
	d="
M204.701111,68.785553 
	C205.004913,69.433952 205.006149,69.859459 205.013672,70.603027 
	C189.824005,66.271660 174.454041,65.999496 158.326447,68.950073 
	C157.450684,68.604004 157.234634,68.365196 157.054321,68.094063 
	C172.877045,64.075218 188.659134,64.162979 204.701111,68.785553 
z"/>
<path fill="#C57528" opacity="1.000000" stroke="none" 
	d="
M306.708130,69.206970 
	C307.088867,72.534103 307.070953,75.742821 307.065491,79.345779 
	C304.675934,79.740021 302.273987,79.740021 299.824219,79.740021 
	C300.463318,70.797806 301.444702,69.303642 306.708130,69.206970 
z"/>
<path fill="#804023" opacity="1.000000" stroke="none" 
	d="
M156.672623,68.135674 
	C157.234634,68.365196 157.450684,68.604004 157.898514,68.957535 
	C147.834503,73.717209 137.574463,78.329842 126.914246,82.963318 
	C129.209900,80.889206 131.633469,78.196770 134.656250,76.819290 
	C141.714752,73.602753 149.061127,71.017952 156.672623,68.135674 
z"/>
<path fill="#884429" opacity="1.000000" stroke="none" 
	d="
M113.689651,94.112534 
	C110.884232,97.965576 107.768784,101.956619 104.305191,106.012207 
	C107.097900,102.134666 110.238754,98.192596 113.689651,94.112534 
z"/>
<path fill="#884429" opacity="1.000000" stroke="none" 
	d="
M124.649063,83.709167 
	C124.189774,84.926994 123.694038,86.625931 122.578949,87.651352 
	C120.106941,89.924568 117.324074,91.859741 114.320702,93.966125 
	C117.426155,90.627899 120.878883,87.256294 124.649063,83.709167 
z"/>
<path fill="#884429" opacity="1.000000" stroke="none" 
	d="
M103.760086,106.907585 
	C103.193016,108.685043 102.386574,110.667244 101.279213,112.830383 
	C100.969978,112.273659 100.961655,111.535995 101.166908,110.281097 
	C101.612160,109.544609 101.790825,109.288414 101.916473,108.995255 
	C102.451218,108.367607 102.985962,107.739960 103.760086,106.907585 
z"/>
<path fill="#884429" opacity="1.000000" stroke="none" 
	d="
M100.778862,113.102409 
	C100.779984,113.238884 100.548126,113.498268 100.087280,113.891075 
	C100.087494,113.758102 100.316681,113.491714 100.778862,113.102409 
z"/>
<path fill="#5E2913" opacity="1.000000" stroke="none" 
	d="
M101.734940,109.144531 
	C101.790825,109.288414 101.612160,109.544609 101.196381,109.912430 
	C101.144867,109.771561 101.325241,109.515823 101.734940,109.144531 
z"/>
<path fill="#F4DEB8" opacity="1.000000" stroke="none" 
	d="
M353.441681,204.844208 
	C354.069824,203.835922 355.093048,202.222778 356.181702,202.177383 
	C364.040344,201.849655 370.580627,198.691559 376.414490,193.645889 
	C376.981079,193.155853 378.104187,193.309265 379.182434,193.406586 
	C372.744202,201.612595 363.987915,204.828140 353.441681,204.844208 
z"/>
<path fill="#F4DEB8" opacity="1.000000" stroke="none" 
	d="
M298.431274,204.899460 
	C299.907532,204.573746 301.796234,204.374222 303.832672,204.479584 
	C302.268158,204.864853 300.555969,204.945251 298.431274,204.899460 
z"/>
<path fill="#4E2818" opacity="1.000000" stroke="none" 
	d="
M211.060989,112.112396 
	C206.169296,117.165787 199.941177,117.878929 193.502335,114.122910 
	C187.258041,110.480377 185.212082,104.808411 187.949310,97.099655 
	C188.543015,96.342270 188.711563,96.034935 188.880112,95.727600 
	C189.403961,95.215431 189.927826,94.703262 191.014252,94.037247 
	C192.051941,93.507309 192.527069,93.131226 193.002182,92.755142 
	C193.002182,92.755142 193.216217,92.623672 193.624725,92.623535 
	C194.357651,92.395630 194.682068,92.167847 195.006470,91.940063 
	C197.173126,91.746040 199.339798,91.552032 201.831253,91.876328 
	C202.836334,93.427544 203.286438,94.801697 204.232849,95.440056 
	C212.805710,101.222458 213.284637,102.282845 211.060989,112.112396 
z"/>
<path fill="#4E2717" opacity="1.000000" stroke="none" 
	d="
M173.028534,79.964989 
	C177.124374,81.974220 178.362778,85.883888 176.241531,90.108620 
	C172.997284,96.570000 162.536484,99.627304 156.360535,95.864502 
	C152.450043,93.481972 151.119415,90.084999 153.152878,85.310516 
	C154.090302,84.912895 154.538910,84.887863 155.356812,84.879120 
	C160.810028,83.241531 165.893921,81.587646 171.319794,79.947113 
	C172.117355,79.961967 172.572952,79.963478 173.028534,79.964989 
z"/>
<path fill="#C2511F" opacity="1.000000" stroke="none" 
	d="
M111.129929,119.687454 
	C108.325890,119.469193 104.330498,121.681862 103.900047,116.120834 
	C104.356277,114.593666 104.860832,113.492165 105.824173,112.005096 
	C106.528488,111.107224 106.774025,110.594917 107.019562,110.082611 
	C107.019554,110.082611 107.015755,110.017540 107.221359,109.861298 
	C107.647148,109.491280 107.823349,109.245903 107.955551,108.968933 
	C107.955551,108.968933 107.989647,108.982323 108.181717,108.783531 
	C108.580086,108.070679 108.786385,107.556625 108.992691,107.042572 
	C108.992691,107.042572 108.979416,106.988495 109.299164,106.908463 
	C110.076263,106.213791 110.533623,105.599144 110.990974,104.984505 
	C111.148178,104.686676 111.366150,104.443268 112.199280,104.110931 
	C113.457039,103.255844 114.160393,102.544083 114.863747,101.832321 
	C114.863747,101.832321 114.843132,101.942490 115.226479,101.917442 
	C120.782234,101.338280 119.861954,97.386925 119.997139,94.024086 
	C119.997139,94.024086 119.987106,93.987823 120.193161,93.858917 
	C120.635666,93.534409 120.833633,93.305519 120.993118,93.043343 
	C121.455482,92.696106 121.917839,92.348869 122.839722,92.211128 
	C124.634171,92.438690 126.058815,92.763229 127.283501,92.404709 
	C129.237854,91.832573 131.059235,90.806213 132.936829,89.971916 
	C123.487328,98.128555 116.142097,107.834564 111.129929,119.687454 
z"/>
<path fill="#B14C20" opacity="1.000000" stroke="none" 
	d="
M133.232590,89.805984 
	C131.059235,90.806213 129.237854,91.832573 127.283501,92.404709 
	C126.058815,92.763229 124.634171,92.438690 123.120667,92.127213 
	C125.919434,90.297668 127.841637,87.469101 130.255142,85.495102 
	C140.080383,77.459122 151.744339,73.025497 164.744537,71.217545 
	C163.519485,72.301407 161.908676,73.365402 160.238617,74.326439 
	C151.343369,79.445183 142.433289,84.538155 133.232590,89.805984 
z"/>
<path fill="#6D3118" opacity="1.000000" stroke="none" 
	d="
M211.355835,111.900261 
	C213.284637,102.282845 212.805710,101.222458 204.232849,95.440056 
	C203.286438,94.801697 202.836334,93.427544 202.176437,92.005493 
	C212.231216,93.825150 216.484055,102.854477 211.355835,111.900261 
z"/>
<path fill="#6A2A11" opacity="1.000000" stroke="none" 
	d="
M172.847366,79.649002 
	C172.572952,79.963478 172.117355,79.961967 170.991272,79.731873 
	C164.513763,77.597527 159.764969,80.287033 154.908295,82.894882 
	C154.789261,82.764656 154.544495,82.510452 154.544495,82.510452 
	C159.909714,76.447212 167.104477,75.185684 172.847366,79.649002 
z"/>
<path fill="#EB6726" opacity="1.000000" stroke="none" 
	d="
M243.634659,129.058289 
	C239.677536,129.114548 235.435623,128.863617 230.828201,128.340454 
	C234.758423,128.295853 239.054138,128.523468 243.634659,129.058289 
z"/>
<path fill="#EB6726" opacity="1.000000" stroke="none" 
	d="
M228.805145,127.971687 
	C226.056168,128.096786 222.989822,127.957634 219.527985,127.718773 
	C222.250916,127.648514 225.369354,127.677971 228.805145,127.971687 
z"/>
<path fill="#6A2A11" opacity="1.000000" stroke="none" 
	d="
M154.987503,84.862831 
	C154.538910,84.887863 154.090302,84.912895 153.305298,84.956833 
	C153.345978,84.289314 153.723068,83.602890 154.322327,82.713455 
	C154.544495,82.510452 154.789261,82.764656 154.900940,83.201797 
	C155.004242,84.046898 154.995880,84.454865 154.987503,84.862831 
z"/>
<path fill="#6D3118" opacity="1.000000" stroke="none" 
	d="
M192.692688,92.797272 
	C192.527069,93.131226 192.051941,93.507309 191.271088,93.930031 
	C191.437988,93.597572 191.910599,93.218483 192.692688,92.797272 
z"/>
<path fill="#6D3118" opacity="1.000000" stroke="none" 
	d="
M188.648590,95.870514 
	C188.711563,96.034935 188.543015,96.342270 188.165497,96.812675 
	C188.110031,96.654968 188.263550,96.334198 188.648590,95.870514 
z"/>
<path fill="#6D3118" opacity="1.000000" stroke="none" 
	d="
M194.701416,91.974197 
	C194.682068,92.167847 194.357651,92.395630 193.735504,92.682693 
	C193.757309,92.497429 194.076828,92.252876 194.701416,91.974197 
z"/>
<path fill="#512A1D" opacity="1.000000" stroke="none" 
	d="
M271.671204,168.716431 
	C270.117035,170.102051 268.800934,171.215866 267.484802,172.329681 
	C267.071045,172.105820 266.657318,171.881958 266.243561,171.658096 
	C266.712158,169.736954 266.747009,167.549988 267.730835,165.944565 
	C270.662537,161.160629 273.829590,156.499573 277.245819,152.052551 
	C277.899841,151.201187 280.108307,151.543991 281.599609,151.335861 
	C281.484222,152.718002 281.841278,154.410965 281.171783,155.428543 
	C278.246857,159.874207 275.024017,164.123840 271.671204,168.716431 
z"/>
<path fill="#512A1D" opacity="1.000000" stroke="none" 
	d="
M298.855103,170.473206 
	C295.677887,167.557510 295.804596,164.994858 298.502533,162.159698 
	C300.737946,159.810547 302.642700,157.146759 305.759186,155.069412 
	C305.234558,159.248245 304.866180,163.454926 304.127808,167.595642 
	C303.670563,170.159607 302.203796,171.899811 298.855103,170.473206 
z"/>
<path fill="#572D1E" opacity="1.000000" stroke="none" 
	d="
M362.936096,147.193405 
	C361.359497,152.961121 358.505005,157.212479 353.193237,159.188400 
	C352.678070,158.785156 352.162933,158.381912 351.647766,157.978653 
	C354.424408,154.302399 357.132996,150.570221 360.054993,147.013412 
	C360.467712,146.511002 361.921265,146.863632 362.936096,147.193405 
z"/>
<path fill="#562C1D" opacity="1.000000" stroke="none" 
	d="
M167.340271,165.429382 
	C170.193954,161.454819 172.891129,157.810257 175.588318,154.165710 
	C177.351288,159.611954 172.371765,167.082413 168.293411,167.608109 
	C168.007706,167.644928 167.557480,166.405396 167.340271,165.429382 
z"/>
<path fill="#4D291C" opacity="1.000000" stroke="none" 
	d="
M133.817322,170.050018 
	C134.244995,170.068253 134.456497,170.284760 134.668015,170.501282 
	C134.312408,170.416946 133.956787,170.332626 133.817322,170.050018 
z"/>
<path fill="#BB5021" opacity="1.000000" stroke="none" 
	d="
M119.698318,94.183838 
	C119.861954,97.386925 120.782234,101.338280 115.213165,101.863007 
	C116.344177,99.336937 117.871841,96.840263 119.698318,94.183838 
z"/>
<path fill="#BB5021" opacity="1.000000" stroke="none" 
	d="
M114.556885,101.885170 
	C114.160393,102.544083 113.457039,103.255844 112.419746,103.999603 
	C112.807220,103.333740 113.528618,102.635880 114.556885,101.885170 
z"/>
<path fill="#BB5021" opacity="1.000000" stroke="none" 
	d="
M110.725250,105.102829 
	C110.533623,105.599144 110.076263,106.213791 109.327003,106.908188 
	C109.509911,106.399010 109.984718,105.810081 110.725250,105.102829 
z"/>
<path fill="#BB5021" opacity="1.000000" stroke="none" 
	d="
M106.798996,110.263329 
	C106.774025,110.594917 106.528488,111.107224 106.045441,111.789398 
	C106.064774,111.454193 106.321609,110.949120 106.798996,110.263329 
z"/>
<path fill="#BB5021" opacity="1.000000" stroke="none" 
	d="
M108.778259,107.225815 
	C108.786385,107.556625 108.580086,108.070679 108.162598,108.771614 
	C108.155556,108.442009 108.359695,107.925537 108.778259,107.225815 
z"/>
<path fill="#BB5021" opacity="1.000000" stroke="none" 
	d="
M107.753502,109.085587 
	C107.823349,109.245903 107.647148,109.491280 107.251083,109.847931 
	C107.155090,109.680313 107.313843,109.417465 107.753502,109.085587 
z"/>
<path fill="#BB5021" opacity="1.000000" stroke="none" 
	d="
M120.787415,93.150528 
	C120.833633,93.305519 120.635666,93.534409 120.211967,93.859406 
	C120.143356,93.694038 120.329025,93.450348 120.787415,93.150528 
z"/>
<path fill="#61321E" opacity="1.000000" stroke="none" 
	d="
M155.356812,84.879120 
	C154.995880,84.454865 155.004242,84.046898 155.019989,83.332024 
	C159.764969,80.287033 164.513763,77.597527 170.649307,79.718521 
	C165.893921,81.587646 160.810028,83.241531 155.356812,84.879120 
z"/>
</svg>